#N canvas 633 185 519 392 10;
#X obj 214 182 hsl 128 15 0 1.57 0 0 empty empty empty -2 -8 0 10 -262144
-1 -1 12700 1;
#X obj 57 265 *~;
#X obj 76 156 osc~;
#X obj 197 265 *~;
#X obj 115 344 dac~;
#X obj 330 293 * -1;
#X obj 330 316 + 1;
#X obj 71 8 vsl 15 128 0 127 0 0 empty empty empty 0 -9 0 10 -262144
-1 -1 0 1;
#X obj 38 219 r~ mix;
#X obj 187 88 inlet~;
#X obj 271 92 inlet~;
#X obj 171 321 outlet~;
#X obj 227 322 outlet~;
#X obj 326 231 cos;
#X obj 185 137 +~;
#X obj 388 105 inlet;
#X connect 1 0 11 0;
#X connect 3 0 12 0;
#X connect 5 0 6 0;
#X connect 7 0 2 0;
#X connect 8 0 1 0;
#X connect 9 0 14 0;
#X connect 10 0 14 1;
#X connect 13 0 3 1;
#X connect 14 0 3 0;
#X connect 15 0 13 0;
#X connect 15 0 1 1;
