#N canvas 661 388 572 465 10;
#X floatatom 66 84 5 0 0 0 - - -, f 5;
#X obj 66 108 pack 0 1000;
#X obj 66 134 line~;
#X obj 74 158 delwrite~ delay 1000;
#X obj 67 180 delread4~ delay 150;
#X obj 31 367 dac~;
#X obj 10 253 *~;
#X obj 67 221 vsl 15 128 0 30 0 0 empty empty empty 0 -9 0 10 -204800
-1 -1 9200 1;
#X obj 141 204 tgl 15 0 empty empty empty 17 7 0 10 -262144 -1 -1 0
1;
#X obj 139 336 hsl 128 15 0 0.9 0 0 empty empty empty -2 -8 0 10 -262144
-1 -1 1700 1;
#X obj 193 181 *~ $;
#X obj 86 5 ctlin 4;
#X obj 114 302 cyclone/gate~ 2 0;
#X obj 191 254 adc~;
#X msg 145 266 2;
#X msg 109 266 1;
#X obj 118 233 sel 0;
#X obj 157 233 sel 1;
#X obj 235 5 ctlin 1;
#X obj 137 5 ctlin 5;
#X obj 187 5 ctlin 6;
#X obj 154 33 change;
#X obj 132 77 f;
#X obj 186 77 + 1;
#X obj 154 54 sel 1;
#X obj 155 100 mod 2;
#X floatatom 155 121 5 0 0 0 - - -, f 5;
#X obj 337 138 rev2~ 10 90 3000 20;
#X floatatom 354 84 5 0 0 0 - - -, f 5;
#X floatatom 401 87 5 0 0 0 - - -, f 5;
#X floatatom 451 61 5 0 0 0 - - -, f 5;
#X floatatom 462 106 5 0 0 0 - - -, f 5;
#X obj 37 253 *~;
#X connect 0 0 1 0;
#X connect 1 0 2 0;
#X connect 2 0 4 0;
#X connect 4 0 6 0;
#X connect 4 0 10 0;
#X connect 6 0 5 0;
#X connect 6 0 5 1;
#X connect 7 0 6 1;
#X connect 7 0 32 1;
#X connect 8 0 16 0;
#X connect 8 0 17 0;
#X connect 9 0 10 1;
#X connect 10 0 3 0;
#X connect 11 0 0 0;
#X connect 12 0 3 0;
#X connect 12 0 6 0;
#X connect 12 1 27 0;
#X connect 12 1 32 0;
#X connect 13 0 12 1;
#X connect 13 1 12 1;
#X connect 14 0 12 0;
#X connect 15 0 12 0;
#X connect 16 0 14 0;
#X connect 17 0 15 0;
#X connect 18 0 21 0;
#X connect 19 0 7 0;
#X connect 20 0 9 0;
#X connect 21 0 24 0;
#X connect 22 0 23 0;
#X connect 22 0 25 0;
#X connect 23 0 22 1;
#X connect 24 0 22 0;
#X connect 25 0 26 0;
#X connect 26 0 8 0;
#X connect 27 0 32 0;
#X connect 28 0 27 1;
#X connect 29 0 27 2;
#X connect 30 0 27 3;
#X connect 31 0 27 4;
#X connect 32 0 5 0;
#X connect 32 0 5 1;
